<svg xmlns="http://www.w3.org/2000/svg" width="4448.121" height="4536.932" viewBox="0 0 1176.899 1200.397"><path style="opacity:1;vector-effect:none;fill:#b3b3b3;fill-opacity:1;stroke:#000;stroke-width:36;stroke-linecap:round;stroke-linejoin:round;stroke-miterlimit:4;stroke-dasharray:none;stroke-dashoffset:0;stroke-opacity:1" d="M-709.432-150.05A509.512 509.512 0 0 1-964.188 291.2l-254.756-441.25z" transform="translate(1866.192 782.32)"/><path style="opacity:1;vector-effect:none;fill:#b3b3b3;fill-opacity:1;stroke:#000;stroke-width:36;stroke-linecap:round;stroke-linejoin:round;stroke-miterlimit:4;stroke-dasharray:none;stroke-dashoffset:0;stroke-opacity:1" d="M-221.451 1047.216a509.512 509.512 0 0 1-254.756 441.25l-254.756-441.25z" transform="rotate(60 255.587 2007.33)"/><path style="opacity:1;vector-effect:none;fill:#b3b3b3;fill-opacity:1;stroke:#000;stroke-width:36;stroke-linecap:round;stroke-linejoin:round;stroke-miterlimit:4;stroke-dasharray:none;stroke-dashoffset:0;stroke-opacity:1" d="M1050.757 1233.287a509.512 509.512 0 0 1-254.756 441.25l-254.756-441.25z" transform="rotate(120 707.26 929.883)"/><path style="opacity:1;vector-effect:none;fill:#b3b3b3;fill-opacity:1;stroke:#000;stroke-width:36;stroke-linecap:round;stroke-linejoin:round;stroke-miterlimit:4;stroke-dasharray:none;stroke-dashoffset:0;stroke-opacity:1" d="M1848.192 222.747a509.512 509.512 0 0 1-254.756 441.25l-254.756-441.25z" transform="rotate(180 933.096 391.16)"/><path style="opacity:1;vector-effect:none;fill:#b3b3b3;fill-opacity:1;stroke:#000;stroke-width:36;stroke-linecap:round;stroke-linejoin:round;stroke-miterlimit:4;stroke-dasharray:none;stroke-dashoffset:0;stroke-opacity:1" d="M1368.529-978.222a509.512 509.512 0 0 1-254.756 441.25l-254.756-441.25z" transform="rotate(-120 1158.933 -147.563)"/><path style="opacity:1;vector-effect:none;fill:#b3b3b3;fill-opacity:1;stroke:#000;stroke-width:36;stroke-linecap:round;stroke-linejoin:round;stroke-miterlimit:4;stroke-dasharray:none;stroke-dashoffset:0;stroke-opacity:1" d="M90.31-1163.02a509.512 509.512 0 0 1-254.756 441.25l-254.756-441.25z" transform="rotate(-60 1610.605 -1225.01)"/></svg>