<svg xmlns="http://www.w3.org/2000/svg" width="5064.96" height="4964.276" viewBox="0 0 1340.104 1313.465"><path style="opacity:1;vector-effect:none;fill:#b3b3b3;fill-opacity:1;stroke:#000;stroke-width:36;stroke-linecap:round;stroke-linejoin:round;stroke-miterlimit:4;stroke-dasharray:none;stroke-dashoffset:0;stroke-opacity:1" d="M1450.019 208.93a509.512 509.512 0 0 1-68.262 254.755L940.507 208.93z" transform="rotate(180 739.578 414.847)"/><path style="opacity:1;vector-effect:none;fill:#b3b3b3;fill-opacity:1;stroke:#000;stroke-width:36;stroke-linecap:round;stroke-linejoin:round;stroke-miterlimit:4;stroke-dasharray:none;stroke-dashoffset:0;stroke-opacity:1" d="M1426.136-215.327a509.512 509.512 0 0 1-68.261 254.756l-441.25-254.756z" transform="rotate(-150 850.736 216.678)"/><path style="opacity:1;vector-effect:none;fill:#b3b3b3;fill-opacity:1;stroke:#000;stroke-width:36;stroke-linecap:round;stroke-linejoin:round;stroke-miterlimit:4;stroke-dasharray:none;stroke-dashoffset:0;stroke-opacity:1" d="M1189.256-572.986a509.512 509.512 0 0 1-68.262 254.756l-441.25-254.756z" transform="rotate(-120 979.09 -12.148)"/><path style="opacity:1;vector-effect:none;fill:#b3b3b3;fill-opacity:1;stroke:#000;stroke-width:36;stroke-linecap:round;stroke-linejoin:round;stroke-miterlimit:4;stroke-dasharray:none;stroke-dashoffset:0;stroke-opacity:1" d="M-157.052 203.866a509.512 509.512 0 0 1-68.261 254.756l-441.25-254.756z" transform="matrix(1 0 0 -1 1479.156 829.694)"/><path style="opacity:1;vector-effect:none;fill:#b3b3b3;fill-opacity:1;stroke:#000;stroke-width:36;stroke-linecap:round;stroke-linejoin:round;stroke-miterlimit:4;stroke-dasharray:none;stroke-dashoffset:0;stroke-opacity:1" d="M31.841 583.823A509.512 509.512 0 0 1-36.42 838.579l-441.25-254.756z" transform="scale(1 -1) rotate(30 2287.809 2345.295)"/><path style="opacity:1;vector-effect:none;fill:#b3b3b3;fill-opacity:1;stroke:#000;stroke-width:36;stroke-linecap:round;stroke-linejoin:round;stroke-miterlimit:4;stroke-dasharray:none;stroke-dashoffset:0;stroke-opacity:1" d="M381.336 816.246a509.512 509.512 0 0 1-68.262 254.756l-441.25-254.756z" transform="scale(1 -1) rotate(60 1458.114 866.14)"/><path style="opacity:1;vector-effect:none;fill:#b3b3b3;fill-opacity:1;stroke:#000;stroke-width:36;stroke-linecap:round;stroke-linejoin:round;stroke-miterlimit:4;stroke-dasharray:none;stroke-dashoffset:0;stroke-opacity:1" d="M1461.156-136.995a509.512 509.512 0 0 1-68.262 254.756l-441.25-254.756z" transform="matrix(-1 0 0 1 1479.156 829.694)"/><path style="opacity:1;vector-effect:none;fill:#b3b3b3;fill-opacity:1;stroke:#000;stroke-width:36;stroke-linecap:round;stroke-linejoin:round;stroke-miterlimit:4;stroke-dasharray:none;stroke-dashoffset:0;stroke-opacity:1" d="M1262.82-520.475a509.512 509.512 0 0 1-68.262 254.756l-441.25-254.756z" transform="scale(-1 1) rotate(30 -2287.809 -2345.295)"/><path style="opacity:1;vector-effect:none;fill:#b3b3b3;fill-opacity:1;stroke:#000;stroke-width:36;stroke-linecap:round;stroke-linejoin:round;stroke-miterlimit:4;stroke-dasharray:none;stroke-dashoffset:0;stroke-opacity:1" d="M895.245-755.593a509.512 509.512 0 0 1-68.261 254.756l-441.25-254.756z" transform="scale(-1 1) rotate(60 -1458.114 -866.14)"/><path style="opacity:1;vector-effect:none;fill:#b3b3b3;fill-opacity:1;stroke:#000;stroke-width:36;stroke-linecap:round;stroke-linejoin:round;stroke-miterlimit:4;stroke-dasharray:none;stroke-dashoffset:0;stroke-opacity:1" d="M-168.189-142.058a509.512 509.512 0 0 1-68.262 254.756L-677.7-142.058z" transform="translate(1479.156 829.694)"/><path style="opacity:1;vector-effect:none;fill:#b3b3b3;fill-opacity:1;stroke:#000;stroke-width:36;stroke-linecap:round;stroke-linejoin:round;stroke-miterlimit:4;stroke-dasharray:none;stroke-dashoffset:0;stroke-opacity:1" d="M-150.766 289.813a509.512 509.512 0 0 1-68.262 254.756l-441.25-254.756z" transform="rotate(30 -808.653 3174.99)"/><path style="opacity:1;vector-effect:none;fill:#b3b3b3;fill-opacity:1;stroke:#000;stroke-width:36;stroke-linecap:round;stroke-linejoin:round;stroke-miterlimit:4;stroke-dasharray:none;stroke-dashoffset:0;stroke-opacity:1" d="M76.188 652.93A509.512 509.512 0 0 1 7.927 907.684l-441.25-254.756z" transform="rotate(60 21.041 1695.834)"/></svg>