<svg xmlns="http://www.w3.org/2000/svg" width="4822.614" height="4737.567" viewBox="0 0 1275.983 1253.481"><path style="opacity:1;vector-effect:none;fill:#b3b3b3;fill-opacity:1;stroke:#000;stroke-width:36;stroke-linecap:round;stroke-linejoin:round;stroke-miterlimit:4;stroke-dasharray:none;stroke-dashoffset:0;stroke-opacity:1" d="M3232.789 327.745a509.512 509.512 0 0 1-119.204 327.508l-390.308-327.508z" transform="rotate(180 1634.638 464.563)"/><path style="opacity:1;vector-effect:none;fill:#b3b3b3;fill-opacity:1;stroke:#000;stroke-width:36;stroke-linecap:round;stroke-linejoin:round;stroke-miterlimit:4;stroke-dasharray:none;stroke-dashoffset:0;stroke-opacity:1" d="M2816.517-1424.429a509.512 509.512 0 0 1-119.203 327.508l-390.31-327.508z" transform="rotate(-140 1803.725 -130.397)"/><path style="opacity:1;vector-effect:none;fill:#b3b3b3;fill-opacity:1;stroke:#000;stroke-width:36;stroke-linecap:round;stroke-linejoin:round;stroke-miterlimit:4;stroke-dasharray:none;stroke-dashoffset:0;stroke-opacity:1" d="M1357.08-2493.996a509.512 509.512 0 0 1-119.204 327.508l-390.309-327.508z" transform="rotate(-100 2024.452 -907.061)"/><path style="opacity:1;vector-effect:none;fill:#b3b3b3;fill-opacity:1;stroke:#000;stroke-width:36;stroke-linecap:round;stroke-linejoin:round;stroke-miterlimit:4;stroke-dasharray:none;stroke-dashoffset:0;stroke-opacity:1" d="M-445.736-2388.253a509.512 509.512 0 0 1-119.203 327.508l-390.31-327.508z" transform="rotate(-60 2439.284 -2366.713)"/><path style="opacity:1;vector-effect:none;fill:#b3b3b3;fill-opacity:1;stroke:#000;stroke-width:36;stroke-linecap:round;stroke-linejoin:round;stroke-miterlimit:4;stroke-dasharray:none;stroke-dashoffset:0;stroke-opacity:1" d="M-1755.655-1146.84a509.512 509.512 0 0 1-119.203 327.507l-390.309-327.508z" transform="rotate(-20 4269.304 -8805.93)"/><path style="opacity:1;vector-effect:none;fill:#b3b3b3;fill-opacity:1;stroke:#000;stroke-width:36;stroke-linecap:round;stroke-linejoin:round;stroke-miterlimit:4;stroke-dasharray:none;stroke-dashoffset:0;stroke-opacity:1" d="M-1974.871 642.147a509.512 509.512 0 0 1-119.203 327.508l-390.31-327.508z" transform="rotate(20 -1000.028 9735.055)"/><path style="opacity:1;vector-effect:none;fill:#b3b3b3;fill-opacity:1;stroke:#000;stroke-width:36;stroke-linecap:round;stroke-linejoin:round;stroke-miterlimit:4;stroke-dasharray:none;stroke-dashoffset:0;stroke-opacity:1" d="M-972.897 2161.294a509.512 509.512 0 0 1-119.203 327.508l-390.308-327.508z" transform="rotate(60 829.992 3295.839)"/><path style="opacity:1;vector-effect:none;fill:#b3b3b3;fill-opacity:1;stroke:#000;stroke-width:36;stroke-linecap:round;stroke-linejoin:round;stroke-miterlimit:4;stroke-dasharray:none;stroke-dashoffset:0;stroke-opacity:1" d="M775.716 2682.32a509.512 509.512 0 0 1-119.203 327.508l-390.309-327.507z" transform="rotate(100 1244.823 1836.187)"/><path style="opacity:1;vector-effect:none;fill:#b3b3b3;fill-opacity:1;stroke:#000;stroke-width:36;stroke-linecap:round;stroke-linejoin:round;stroke-miterlimit:4;stroke-dasharray:none;stroke-dashoffset:0;stroke-opacity:1" d="M2444.367 1959.557a509.512 509.512 0 0 1-119.203 327.508l-390.309-327.508z" transform="rotate(140 1465.55 1059.522)"/></svg>