<svg xmlns="http://www.w3.org/2000/svg" width="6638.345" height="3317.261" viewBox="0 0 1756.395 877.692"><path d="m62.05 89.62-7.471-10.583c-1.411-2.117-3.88-3.528-6.703-3.528-2.469 0-5.291 1.411-6.702 3.528l-7.56 10.583m0 0H18.243c-5.292 0-14.464 7.387-9.172 7.387h190.5c5.292 0-3.88-7.387-8.82-7.387H174.94l-7.47-10.583c-1.412-2.117-4.234-3.528-6.703-3.528-2.47 0-5.292 1.411-6.703 3.528l-7.257 10.583h-25.519l-10.264-14.11c-1.41-2.117-3.88-3.528-6.702-3.528-2.47 0-5.292 1.41-6.703 3.527L87.583 89.62H62.05m97.657-6.35c.352-.705.705-.705 1.058-.705.353 0 .706 0 1.41.706l4.587 6.35H155.12zm-56.445-3.527c.353-.706.706-.706 1.059-.706.352 0 .705 0 1.41.706l7.056 9.877h-16.58zM53.873 89.62H42.232m0 0 4.586-6.35c.353-.706.706-.706 1.058-.706.353 0 .706 0 1.411.706l4.586 6.35" style="fill:#000;stroke-width:.41341147" transform="matrix(8.29795 0 0 8.29795 11.112 -597.3)"/><path d="M22.427 121.723H10.785a9.485 9.485 0 0 0-9.525 9.525v8.114c0 3.881 2.117 7.056 5.998 8.82 2.71 1.084 5.627.913 8.114-.501v41.01H1.26c-2.117 0-3.528 1.41-3.528 3.527v14.11c0 2.117 1.411 3.528 3.528 3.528l204.611.001c2.117 0 3.528-1.41 3.528-3.527v-14.111c0-2.118-1.411-3.529-3.528-3.529h-14.11v-41.217c2.56 1.607 5.627 1.845 8.466.709 3.528-1.764 5.644-4.94 5.644-8.82v-8.114a9.485 9.485 0 0 0-9.525-9.525h-11.641m-7.056 0h-63.5zm-84.667 0h-63.5zm-80.786 19.403c-1.058.706-2.116.706-2.469.353-.353 0-1.41-.706-1.41-2.117v-8.114c0-1.41 1.057-2.469 2.468-2.469h185.561c1.41 0 2.47 1.058 2.47 2.47v8.113c0 1.411-1.06 1.764-1.412 2.117-.352.353-1.41.706-2.469-.353-1.392-1.391-3.223-2.225-5.147-2.519a3.944 3.944 0 0 0-1.556-.303c-1.058 0-2.469.353-3.527.706-1.411.706-2.117 1.058-3.175 2.117l-12.348 12.347c-4.939 4.94-13.405 4.94-18.344 0l-4.939-4.94c-7.761-7.76-20.461-7.76-28.222 0l-4.94 4.94c-4.938 4.939-13.405 4.939-18.344 0l-4.939-4.94c-7.76-7.76-20.46-7.76-28.222 0l-4.94 4.94c-.352.352-1.057 1.058-1.763 1.41-.3.3-.856.6-1.45.901l-.314.158c-1.411.706-2.117 1.764-2.117 3.175v4.939c0 2.117-1.41 3.528-3.527 3.528s-3.528-1.411-3.528-3.528v-4.939c0-1.411-1.058-2.47-2.117-3.175-.352-.353-1.058-.706-1.764-1.058a3.821 3.821 0 0 1-.388-.23 11.742 11.742 0 0 1-1.376-1.181l-12.346-12.348c-1.059-1.058-2.117-1.764-3.175-2.116l-.122-.04a9.28 9.28 0 0 0-3.406-.666c-2.47 0-4.939.706-6.703 2.822zm10.23 6.703 10.584 10.583c1.058 1.059 2.117 2.117 3.528 2.823v2.822c0 5.997 4.586 10.583 10.583 10.583s10.583-4.586 10.583-10.583v-2.822c1.411-.706 2.47-1.764 3.528-2.823l4.939-4.939c4.939-4.939 13.406-4.939 18.344 0l4.94 4.94c3.88 3.88 8.819 5.997 14.11 5.997 5.292 0 10.231-2.117 14.112-5.998l4.939-4.939c4.939-4.939 13.405-4.939 18.344 0l4.939 4.94c3.88 3.88 8.82 5.997 14.111 5.997 5.292 0 10.23-2.117 14.111-5.998l10.583-10.29v40.568H22.427zm179.917 54.972H4.788v-7.056H202.343z" style="fill:#000;stroke-width:.41341147" transform="matrix(8.29795 0 0 8.29795 18.817 -863.692)"/></svg>