<?xml version="1.0" encoding="UTF-8" standalone="no"?>
<!-- Uploaded to: SVG Repo, www.svgrepo.com, Generator: SVG Repo Mixer Tools -->

<svg
   xmlns:dc="http://purl.org/dc/elements/1.1/"
   xmlns:cc="http://creativecommons.org/ns#"
   xmlns:rdf="http://www.w3.org/1999/02/22-rdf-syntax-ns#"
   xmlns:svg="http://www.w3.org/2000/svg"
   xmlns="http://www.w3.org/2000/svg"
   xmlns:sodipodi="http://sodipodi.sourceforge.net/DTD/sodipodi-0.dtd"
   xmlns:inkscape="http://www.inkscape.org/namespaces/inkscape"
   fill="#000000"
   height="800px"
   width="800px"
   version="1.1"
   id="Capa_1"
   viewBox="0 0 271.985 271.985"
   xml:space="preserve"
   sodipodi:docname="carta-thin.svg"
   inkscape:version="0.92.4 (5da689c313, 2019-01-14)"><metadata
   id="metadata835"><rdf:RDF><cc:Work
       rdf:about=""><dc:format>image/svg+xml</dc:format><dc:type
         rdf:resource="http://purl.org/dc/dcmitype/StillImage" /></cc:Work></rdf:RDF></metadata><defs
   id="defs833" /><sodipodi:namedview
   pagecolor="#ffffff"
   bordercolor="#666666"
   borderopacity="1"
   objecttolerance="10"
   gridtolerance="10"
   guidetolerance="10"
   inkscape:pageopacity="0"
   inkscape:pageshadow="2"
   inkscape:window-width="1920"
   inkscape:window-height="1009"
   id="namedview831"
   showgrid="false"
   inkscape:zoom="1.0525"
   inkscape:cx="400"
   inkscape:cy="400"
   inkscape:window-x="-8"
   inkscape:window-y="-8"
   inkscape:window-maximized="1"
   inkscape:current-layer="Capa_1" />
<g
   id="g828">
	<path
   sodipodi:type="inkscape:offset"
   inkscape:radius="-4.1915674"
   inkscape:original="M 223.16602 7.4980469 C 220.86277 7.4980469 218.55878 8.3777656 216.80078 10.134766 L 159.93359 67.001953 C 152.91559 74.020953 149.05078 83.351391 149.05078 93.275391 C 149.05078 93.644391 149.06713 94.009953 149.07812 94.376953 L 123.27539 120.17773 L 16.654297 13.556641 C 14.293297 11.196641 10.821906 10.336219 7.6289062 11.324219 C 4.4389063 12.312219 2.0573594 14.986531 1.4433594 18.269531 C -3.6946406 45.774531 5.0509375 74.007969 24.835938 93.792969 L 87.25 156.20508 L 22.457031 220.99805 C 17.645031 225.81005 14.996094 232.20672 14.996094 239.01172 C 14.996094 245.81672 17.645031 252.21339 22.457031 257.02539 C 27.269031 261.83739 33.667656 264.48633 40.472656 264.48633 C 47.277656 264.48633 53.674328 261.83739 58.486328 257.02539 L 123.27734 192.23438 L 184.64648 253.60352 C 189.61348 258.56952 196.13616 261.05273 202.66016 261.05273 C 209.18416 261.05273 215.70878 258.56952 220.67578 253.60352 C 230.60878 243.67052 230.60878 227.50817 220.67578 217.57617 L 159.30469 156.20508 L 185.12305 130.38867 C 185.48505 130.39867 185.84503 130.41211 186.20703 130.41211 C 195.72203 130.41211 205.23747 126.79183 212.48047 119.54883 L 269.34766 62.681641 C 272.86266 59.166641 272.86266 53.466172 269.34766 49.951172 C 265.83166 46.437172 260.13514 46.437172 256.61914 49.951172 L 218.38086 88.193359 L 211.19922 81.013672 L 250.85352 41.357422 C 254.36852 37.842422 254.36852 32.143906 250.85352 28.628906 C 247.33752 25.114906 241.641 25.114906 238.125 28.628906 L 198.4707 68.285156 L 191.28906 61.103516 L 229.5293 22.863281 C 233.0443 19.348281 233.0443 13.649766 229.5293 10.134766 C 227.7713 8.3777656 225.46927 7.4980469 223.16602 7.4980469 z M 18.353516 40.712891 L 91.087891 113.44531 L 80.642578 123.89062 C 80.600578 123.93263 80.564437 123.97848 80.523438 124.02148 L 37.564453 81.0625 C 26.576453 70.0755 19.911516 55.782891 18.353516 40.712891 z M 178.56055 73.832031 L 205.65039 100.92188 L 199.75195 106.82031 C 192.28295 114.28931 180.13111 114.28931 172.66211 106.82031 C 165.19411 99.352312 165.19311 87.197516 172.66211 79.728516 L 178.56055 73.832031 z M 155.18164 113.73242 C 156.55364 115.80342 158.13855 117.75283 159.93555 119.54883 C 161.74555 121.35883 163.69691 122.94183 165.75391 124.29883 L 45.757812 244.29688 C 42.843812 247.21087 38.1015 247.21087 35.1875 244.29688 C 32.2725 241.38288 32.2725 236.64056 35.1875 233.72656 L 155.18164 113.73242 z M 103.81641 126.17578 L 110.54883 132.90625 L 99.978516 143.47852 L 93.240234 136.73828 C 93.283234 136.69628 93.329094 136.66114 93.371094 136.61914 L 103.81641 126.17578 z M 146.57617 168.93359 L 207.94531 230.30469 C 210.86031 233.21869 210.86031 237.95905 207.94531 240.87305 C 205.03131 243.78705 200.29095 243.78705 197.37695 240.87305 L 136.00586 179.50586 L 146.57617 168.93359 z "
   id="path826"
   d="m 223.16602,11.689453 c -1.23595,0 -2.44471,0.45306 -3.40235,1.410156 l -56.86523,56.867188 c -6.24813,6.249573 -9.65625,14.473349 -9.65625,23.308594 0,0.245184 0.0132,0.568478 0.0254,0.976562 a 4.1919866,4.1919866 0 0 1 -1.22656,3.089844 l -25.80274,25.800783 a 4.1919866,4.1919866 0 0 1 -5.92773,0 L 13.691406,16.521484 h -0.002 C 12.421136,15.254614 10.583558,14.797034 8.8671875,15.328125 7.1567387,15.858536 5.8939066,17.279459 5.5644531,19.041016 0.67994398,45.192507 8.9893655,72.01671 27.800781,90.828125 l 62.41211,62.412105 a 4.1919866,4.1919866 0 0 1 0.002,5.92969 l -64.792969,64.79297 c -4.042545,4.04255 -6.234375,9.33158 -6.234375,15.04883 0,5.71725 2.19183,11.00628 6.234375,15.04883 4.042144,4.04214 9.333531,6.23437 15.050781,6.23437 5.71725,0 11.006283,-2.19183 15.048828,-6.23437 L 120.3125,189.26953 a 4.1919866,4.1919866 0 0 1 5.92969,0 l 61.36719,61.36914 c 4.16354,4.16271 9.59039,6.22266 15.05078,6.22266 5.4599,0 10.88776,-2.06107 15.05078,-6.22266 8.32545,-8.32545 8.32716,-21.77328 0.002,-30.09765 a 4.1919866,4.1919866 0 0 1 -0.002,0 l -61.3711,-61.3711 a 4.1919866,4.1919866 0 0 1 0.002,-5.92969 l 25.81836,-25.8164 a 4.1919866,4.1919866 0 0 1 3.07812,-1.22461 c 0.38896,0.0107 0.7105,0.0215 0.96875,0.0215 8.45179,0 16.86971,-3.19783 23.30859,-9.63672 l 56.86719,-56.867183 c 1.91277,-1.912768 1.91277,-4.888014 0,-6.800781 -1.91424,-1.911912 -4.88428,-1.913325 -6.79883,-0.002 L 221.3457,91.15625 a 4.1919866,4.1919866 0 0 1 -5.92773,0.002 l -7.18164,-7.179687 a 4.1919866,4.1919866 0 0 1 -0.002,-5.927735 l 39.65429,-39.65625 a 4.1919866,4.1919866 0 0 1 0,-0.002 c 1.91332,-1.913317 1.91332,-4.885511 0,-6.798828 -1.91425,-1.911911 -4.88428,-1.913324 -6.79883,-0.002 l -39.65429,39.65625 a 4.1919866,4.1919866 0 0 1 -5.92969,0.002 l -7.18164,-7.181641 a 4.1919866,4.1919866 0 0 1 0,-5.929687 l 38.24023,-38.240234 c 1.91332,-1.913317 1.91332,-4.885512 0,-6.798829 -0.95854,-0.957363 -2.16301,-1.410156 -3.39843,-1.410156 z M 18.464844,36.523438 a 4.1919866,4.1919866 0 0 1 2.851562,1.224609 l 72.734375,72.732423 a 4.1919866,4.1919866 0 0 1 0.002,5.92969 l -10.445312,10.44531 c 0.175033,-0.17509 0.164016,-0.16669 -0.05078,0.0586 a 4.1919866,4.1919866 0 0 1 -5.998047,0.0723 L 34.601562,84.027344 C 22.927589,72.354433 15.839462,57.161178 14.183594,41.144531 a 4.1919866,4.1919866 0 0 1 4.28125,-4.621093 z M 178.62305,69.640625 a 4.1919866,4.1919866 0 0 1 2.90234,1.226563 l 27.08984,27.089843 a 4.1919866,4.1919866 0 0 1 0,5.929689 l -5.89843,5.89844 c -9.07639,9.07638 -23.94315,9.07638 -33.01953,0 -9.07586,-9.07586 -9.07691,-23.94458 0,-33.021488 a 4.1919866,4.1919866 0 0 1 0.002,0 l 5.89844,-5.896484 a 4.1919866,4.1919866 0 0 1 3.02539,-1.226563 z m -23.37891,39.900395 a 4.1919866,4.1919866 0 0 1 3.43164,1.87695 c 1.22002,1.84159 2.62671,3.57095 4.22266,5.16601 a 4.1919866,4.1919866 0 0 1 0.002,0 c 1.60894,1.60894 3.33873,3.01392 5.16211,4.2168 a 4.1919866,4.1919866 0 0 1 0.65625,6.46094 L 48.722656,247.25977 a 4.1919866,4.1919866 0 0 1 0,0.002 c -4.521436,4.52142 -11.976093,4.52062 -16.498047,0 -4.52311,-4.52156 -4.52311,-11.97844 0,-16.5 L 152.2168,110.76758 a 4.1919866,4.1919866 0 0 1 3.02734,-1.22656 z m -51.36523,12.44336 a 4.1919866,4.1919866 0 0 1 2.90039,1.22656 l 6.73242,6.73047 a 4.1919866,4.1919866 0 0 1 0.002,5.92773 l -10.57031,10.57227 a 4.1919866,4.1919866 0 0 1 -5.929688,0 l -6.738281,-6.74024 a 4.1919866,4.1919866 0 0 1 0.03516,-5.96094 c 0.27267,-0.26632 0.305869,-0.2961 0.0957,-0.0859 a 4.1919866,4.1919866 0 0 1 0.002,0 l 10.445317,-10.44336 a 4.1919866,4.1919866 0 0 1 3.02539,-1.22656 z m 42.75781,42.75781 a 4.1919866,4.1919866 0 0 1 2.9043,1.22851 l 61.36914,61.3711 c 4.52045,4.52109 4.51983,11.97586 -0.002,16.49609 -4.52089,4.51957 -11.97325,4.51957 -16.49414,0 h -0.002 L 133.04297,182.4707 a 4.1919866,4.1919866 0 0 1 -0.002,-5.92773 l 10.57031,-10.57227 a 4.1919866,4.1919866 0 0 1 3.02539,-1.22851 z" />
</g>
</svg>