<?xml version="1.0" encoding="UTF-8" standalone="no"?>
<!-- Created with Inkscape (http://www.inkscape.org/) -->

<svg
   xmlns:dc="http://purl.org/dc/elements/1.1/"
   xmlns:cc="http://creativecommons.org/ns#"
   xmlns:rdf="http://www.w3.org/1999/02/22-rdf-syntax-ns#"
   xmlns:svg="http://www.w3.org/2000/svg"
   xmlns="http://www.w3.org/2000/svg"
   xmlns:sodipodi="http://sodipodi.sourceforge.net/DTD/sodipodi-0.dtd"
   xmlns:inkscape="http://www.inkscape.org/namespaces/inkscape"
   width="27.334105mm"
   height="7.8634167mm"
   viewBox="0 0 27.334105 7.8634167"
   version="1.1"
   id="svg8"
   inkscape:version="0.92.4 (5da689c313, 2019-01-14)"
   sodipodi:docname="carta.svg">
  <defs
     id="defs2" />
  <sodipodi:namedview
     id="base"
     pagecolor="#ffffff"
     bordercolor="#666666"
     borderopacity="1.0"
     inkscape:pageopacity="0.0"
     inkscape:pageshadow="2"
     inkscape:zoom="3.959798"
     inkscape:cx="57.006978"
     inkscape:cy="1.0436147"
     inkscape:document-units="mm"
     inkscape:current-layer="flowRoot815"
     showgrid="false"
     showborder="false"
     fit-margin-top="0"
     fit-margin-left="0"
     fit-margin-right="0"
     fit-margin-bottom="0"
     inkscape:window-width="1920"
     inkscape:window-height="1009"
     inkscape:window-x="-8"
     inkscape:window-y="-8"
     inkscape:window-maximized="1" />
  <metadata
     id="metadata5">
    <rdf:RDF>
      <cc:Work
         rdf:about="">
        <dc:format>image/svg+xml</dc:format>
        <dc:type
           rdf:resource="http://purl.org/dc/dcmitype/StillImage" />
        <dc:title></dc:title>
      </cc:Work>
    </rdf:RDF>
  </metadata>
  <g
     inkscape:label="Layer 1"
     inkscape:groupmode="layer"
     id="layer1"
     transform="translate(-10.586253,-67.218678)">
    <g
       aria-label="CARTA"
       transform="scale(0.26458333)"
       style="font-style:normal;font-variant:normal;font-weight:normal;font-stretch:normal;font-size:40px;line-height:1.25;font-family:Impact;-inkscape-font-specification:Impact;letter-spacing:0px;word-spacing:0px;fill:#000000;fill-opacity:1;stroke:none"
       id="flowRoot815">
      <flowRoot
         xml:space="preserve"
         id="flowRoot826"
         style="font-style:normal;font-variant:normal;font-weight:normal;font-stretch:normal;font-size:40px;line-height:1.25;font-family:Impact;-inkscape-font-specification:Impact;letter-spacing:0px;word-spacing:0px;fill:#000000;fill-opacity:1;stroke:none"
         transform="translate(32.347734,258.90024)"><flowRegion
           id="flowRegion828"><rect
             id="rect830"
             width="106.06602"
             height="44.699249"
             x="-21.718279"
             y="-10.973258" /></flowRegion><flowPara
           id="flowPara832">CARA</flowPara></flowRoot>      <g
         aria-label="CARTA"
         style="font-style:normal;font-variant:normal;font-weight:normal;font-stretch:normal;font-size:40px;line-height:1.25;font-family:Impact;-inkscape-font-specification:Impact;letter-spacing:0px;word-spacing:0px;fill:#000000;fill-opacity:1;stroke:none"
         id="text836">
        <path
           d="m 48.851035,283.77485 q -2.4,0 -4.44,-0.88 -2,-0.88 -3.2,-2.84 -1.2,-1.96 -1.2,-5.2 v -11.64 q 0,-3.24 1.2,-5.2 1.2,-1.96 3.24,-2.84 2.04,-0.88 4.44,-0.88 2.76,0 4.76,0.96 2.04,0.92 3.16,2.56 1.16,1.6 1.16,3.72 0,1.36 -0.52,1.8 -0.52,0.4 -1.6,0.4 -0.96,0 -1.52,-0.32 -0.56,-0.36 -0.6,-1.08 -0.04,-0.52 -0.2,-1.24 -0.16,-0.72 -0.64,-1.4 -0.44,-0.72 -1.36,-1.16 -0.92,-0.48 -2.52,-0.48 -2.32,0 -3.56,1.28 -1.24,1.24 -1.24,3.88 v 11.64 q 0,2.64 1.24,3.92 1.28,1.24 3.68,1.24 1.52,0 2.4,-0.44 0.92,-0.48 1.36,-1.16 0.44,-0.72 0.6,-1.48 0.16,-0.8 0.24,-1.44 0.04,-0.76 0.6,-1.08 0.6,-0.32 1.48,-0.32 1.12,0 1.64,0.44 0.52,0.44 0.52,1.76 0,2.16 -1.16,3.88 -1.12,1.68 -3.16,2.64 -2.04,0.96 -4.8,0.96 z"
           style="font-style:normal;font-variant:normal;font-weight:600;font-stretch:normal;font-family:Dosis;-inkscape-font-specification:'Dosis Semi-Bold'"
           id="path838"
           inkscape:connector-curvature="0" />
        <path
           d="m 62.45166,283.53485 q -0.56,0 -1.2,-0.24 -0.64,-0.24 -1.04,-0.6 -0.4,-0.4 -0.4,-0.92 0,-0.12 0.04,-0.36 l 7.96,-25.92 q 0.24,-0.72 1,-1.08 0.8,-0.36 1.68,-0.36 0.92,0 1.68,0.36 0.8,0.36 1.04,1.08 l 7.92,25.92 q 0.08,0.24 0.08,0.36 0,0.48 -0.44,0.88 -0.4,0.4 -1.04,0.64 -0.6,0.24 -1.2,0.24 -0.52,0 -0.92,-0.2 -0.36,-0.2 -0.52,-0.68 l -1.64,-5.68 h -9.92 l -1.6,5.68 q -0.12,0.48 -0.56,0.68 -0.4,0.2 -0.92,0.2 z m 4.04,-9.96 h 8 l -4,-13.72 z"
           style="font-style:normal;font-variant:normal;font-weight:600;font-stretch:normal;font-family:Dosis;-inkscape-font-specification:'Dosis Semi-Bold'"
           id="path840"
           inkscape:connector-curvature="0" />
        <path
           d="m 100.11354,283.65485 q -0.520005,0 -0.960005,-0.36 -0.4,-0.36 -0.68,-0.88 l -5.88,-11.44 h -4 v 11.16 q 0,0.68 -0.68,1.04 -0.64,0.36 -1.44,0.36 -0.8,0 -1.48,-0.36 -0.64,-0.36 -0.64,-1.04 v -26.48 q 0,-0.56 0.36,-0.96 0.4,-0.4 1.08,-0.4 h 7.6 q 2.52,0 4.6,0.76 2.080005,0.72 3.320005,2.52 1.24,1.76 1.24,4.88 0,2.4 -0.76,4 -0.72,1.6 -2.000005,2.56 -1.24,0.92 -2.84,1.36 l 5.600005,10.52 q 0.08,0.12 0.12,0.32 0.04,0.16 0.04,0.28 0,0.52 -0.4,1.04 -0.4,0.48 -1,0.8 -0.56,0.32 -1.2,0.32 z m -11.520005,-16.08 h 4.8 q 2.24,0 3.56,-1.08 1.36,-1.08 1.36,-3.68 0,-2.6 -1.36,-3.68 -1.32,-1.08 -3.56,-1.08 h -4.8 z"
           style="font-style:normal;font-variant:normal;font-weight:600;font-stretch:normal;font-family:Dosis;-inkscape-font-specification:'Dosis Semi-Bold'"
           id="path842"
           inkscape:connector-curvature="0" />
        <path
           d="m 113.47416,283.53485 q -0.8,0 -1.48,-0.36 -0.64,-0.36 -0.64,-1.04 v -23.96 h -6.2 q -0.64,0 -1,-0.6 -0.36,-0.6 -0.36,-1.36 0,-0.72 0.32,-1.32 0.32,-0.6 1.04,-0.6 h 16.6 q 0.76,0 1.08,0.6 0.32,0.6 0.32,1.28 0,0.8 -0.36,1.4 -0.32,0.6 -1.04,0.6 h -6.16 v 23.96 q 0,0.68 -0.68,1.04 -0.64,0.36 -1.44,0.36 z"
           style="font-style:normal;font-variant:normal;font-weight:600;font-stretch:normal;font-family:Dosis;-inkscape-font-specification:'Dosis Semi-Bold'"
           id="path844"
           inkscape:connector-curvature="0" />
        <path
           d="m 124.56104,283.53485 q -0.56,0 -1.2,-0.24 -0.64,-0.24 -1.04,-0.6 -0.4,-0.4 -0.4,-0.92 0,-0.12 0.04,-0.36 l 7.96,-25.92 q 0.24,-0.72 1,-1.08 0.8,-0.36 1.68,-0.36 0.92,0 1.68,0.36 0.8,0.36 1.04,1.08 l 7.92,25.92 q 0.08,0.24 0.08,0.36 0,0.48 -0.44,0.88 -0.4,0.4 -1.04,0.64 -0.6,0.24 -1.2,0.24 -0.52,0 -0.92,-0.2 -0.36,-0.2 -0.52,-0.68 l -1.64,-5.68 h -9.92 l -1.6,5.68 q -0.12,0.48 -0.56,0.68 -0.4,0.2 -0.92,0.2 z m 4.04,-9.96 h 8 l -4,-13.72 z"
           style="font-style:normal;font-variant:normal;font-weight:600;font-stretch:normal;font-family:Dosis;-inkscape-font-specification:'Dosis Semi-Bold'"
           id="path846"
           inkscape:connector-curvature="0" />
      </g>
    </g>
  </g>
</svg>
