<svg xmlns="http://www.w3.org/2000/svg" width="190.621" height="29.8" viewBox="0 0 50.435 7.885"><g aria-label="ENTREPANS" style="font-style:normal;font-variant:normal;font-weight:400;font-stretch:normal;font-size:10.58333302px;line-height:1.25;font-family:Impact;-inkscape-font-specification:Impact;letter-spacing:0;word-spacing:0;fill:#000;fill-opacity:1;stroke:none;stroke-width:.26458332"><path d="M4.323 68.23q-.18 0-.338-.095-.16-.096-.16-.276v-6.995q0-.18.16-.275.158-.096.338-.096h3.768q.201 0 .286.16.084.158.084.327 0 .201-.095.36-.095.148-.275.148H4.948v2.424h1.63q.18 0 .275.137.095.138.095.318 0 .148-.085.296-.084.138-.286.138h-1.63v2.434h3.144q.18 0 .275.148.095.148.095.36 0 .17-.084.328-.085.159-.286.159zM9.906 68.23q-.212 0-.392-.095-.17-.096-.17-.276v-6.995q0-.201.17-.286.18-.085.392-.085.2 0 .338.064.149.053.265.19.116.138.243.381l2.35 4.583v-4.858q0-.19.17-.275.18-.085.39-.085.213 0 .382.085.18.085.18.275v7.006q0 .18-.18.276-.17.095-.381.095-.212 0-.381-.106-.17-.106-.286-.307l-2.53-4.815v4.857q0 .18-.18.276-.169.095-.38.095zM17.608 68.23q-.212 0-.392-.095-.17-.096-.17-.276V61.52h-1.64q-.169 0-.264-.159-.095-.158-.095-.36 0-.19.084-.349.085-.159.275-.159H19.8q.2 0 .285.16.085.158.085.338 0 .212-.095.37-.085.159-.275.159h-1.63v6.34q0 .18-.18.275-.17.095-.381.095zM25.152 68.262q-.137 0-.254-.096-.106-.095-.18-.232l-1.555-3.027h-1.059v2.952q0 .18-.18.276-.169.095-.38.095-.212 0-.392-.095-.17-.096-.17-.276v-7.006q0-.148.096-.254.105-.106.285-.106h2.011q.667 0 1.217.202.55.19.879.666.328.466.328 1.291 0 .635-.201 1.059-.19.423-.53.677-.328.244-.75.36l1.48 2.783q.022.032.033.085.01.042.01.074 0 .138-.106.275-.106.127-.264.212-.148.085-.318.085zm-3.048-4.255h1.27q.593 0 .942-.286.36-.285.36-.973t-.36-.974q-.35-.286-.942-.286h-1.27zM27.33 68.23q-.18 0-.34-.095-.158-.096-.158-.276v-6.995q0-.18.159-.275.159-.096.339-.096h3.767q.201 0 .286.16.085.158.085.327 0 .201-.096.36-.095.148-.275.148h-3.143v2.424h1.63q.18 0 .275.137.095.138.095.318 0 .148-.084.296-.085.138-.286.138h-1.63v2.434h3.143q.18 0 .275.148.096.148.096.36 0 .17-.085.328-.085.159-.286.159zM32.912 68.23q-.212 0-.391-.085-.17-.095-.17-.286v-7.006q0-.148.117-.254.127-.106.317-.106h2.064q.645 0 1.175.233.529.223.836.741.307.508.307 1.355v.084q0 .847-.318 1.366-.317.508-.857.74-.54.233-1.207.233h-1.312v2.614q0 .19-.18.286-.17.085-.38.085zm.561-3.874h1.312q.593 0 .921-.338.339-.339.339-1.037v-.127q0-.699-.339-1.027-.328-.339-.92-.339h-1.313zM37.822 68.23q-.148 0-.318-.064-.169-.063-.275-.158-.106-.106-.106-.244 0-.032.01-.095l2.107-6.858q.063-.19.265-.286.211-.095.444-.095.243 0 .445.095.211.095.275.286l2.095 6.858q.021.063.021.095 0 .127-.116.233-.106.106-.275.17-.159.063-.318.063-.137 0-.243-.053-.095-.053-.138-.18l-.434-1.503h-2.624l-.424 1.503q-.031.127-.148.18-.106.053-.243.053zm1.069-2.635h2.116l-1.058-3.63zM44.178 68.23q-.212 0-.392-.095-.17-.096-.17-.276v-6.995q0-.201.17-.286.18-.085.392-.085.2 0 .338.064.148.053.265.19.116.138.243.381l2.35 4.583v-4.858q0-.19.17-.275.179-.085.39-.085.212 0 .382.085.18.085.18.275v7.006q0 .18-.18.276-.17.095-.381.095-.212 0-.381-.106-.17-.106-.286-.307l-2.53-4.815v4.857q0 .18-.18.276-.169.095-.38.095zM51.848 68.315q-.688 0-1.217-.202-.53-.2-.826-.486-.296-.297-.296-.561 0-.127.063-.265.075-.137.18-.233.117-.106.244-.106.148 0 .275.127.138.117.328.286.19.17.476.297.286.127.73.127.382 0 .678-.117.307-.127.476-.37.18-.254.18-.635 0-.402-.19-.667-.18-.265-.498-.445-.307-.18-.667-.328-.36-.148-.73-.317-.37-.17-.677-.402-.307-.244-.498-.604-.18-.37-.18-.92 0-.582.212-.974.222-.392.582-.624.36-.233.794-.328.434-.106.857-.106.265 0 .582.042.328.032.635.127.307.085.508.233.201.148.201.36 0 .106-.053.254-.052.137-.158.243-.096.106-.254.106-.138 0-.307-.095-.17-.106-.445-.201-.264-.106-.709-.106-.38 0-.688.106-.296.105-.465.317-.17.201-.17.54t.18.56q.19.212.498.371.307.148.666.286.37.138.73.328.371.18.678.445.317.264.497.677.19.402.19 1.005 0 .762-.317 1.27-.307.498-.857.741-.54.244-1.238.244z" style="font-style:normal;font-variant:normal;font-weight:600;font-stretch:normal;font-family:Dosis;-inkscape-font-specification:'Dosis Semi-Bold';stroke-width:.26458332" transform="translate(-3.826 -60.43)"/></g></svg>