<?xml version="1.0" encoding="UTF-8" standalone="no"?>
<!-- Created with Inkscape (http://www.inkscape.org/) -->

<svg
   xmlns:dc="http://purl.org/dc/elements/1.1/"
   xmlns:cc="http://creativecommons.org/ns#"
   xmlns:rdf="http://www.w3.org/1999/02/22-rdf-syntax-ns#"
   xmlns:svg="http://www.w3.org/2000/svg"
   xmlns="http://www.w3.org/2000/svg"
   xmlns:sodipodi="http://sodipodi.sourceforge.net/DTD/sodipodi-0.dtd"
   xmlns:inkscape="http://www.inkscape.org/namespaces/inkscape"
   width="31.88505mm"
   height="9.192894mm"
   viewBox="0 0 31.88505 9.192894"
   version="1.1"
   id="svg1195"
   inkscape:version="0.92.4 (5da689c313, 2019-01-14)"
   sodipodi:docname="fs.svg">
  <defs
     id="defs1189" />
  <sodipodi:namedview
     id="base"
     pagecolor="#ffffff"
     bordercolor="#666666"
     borderopacity="1.0"
     inkscape:pageopacity="0.0"
     inkscape:pageshadow="2"
     inkscape:zoom="7.9195959"
     inkscape:cx="30.781665"
     inkscape:cy="11.098927"
     inkscape:document-units="mm"
     inkscape:current-layer="layer1"
     showgrid="false"
     fit-margin-top="0"
     fit-margin-left="0"
     fit-margin-right="0"
     fit-margin-bottom="0"
     inkscape:window-width="1920"
     inkscape:window-height="1009"
     inkscape:window-x="-8"
     inkscape:window-y="-8"
     inkscape:window-maximized="1" />
  <metadata
     id="metadata1192">
    <rdf:RDF>
      <cc:Work
         rdf:about="">
        <dc:format>image/svg+xml</dc:format>
        <dc:type
           rdf:resource="http://purl.org/dc/dcmitype/StillImage" />
        <dc:title />
      </cc:Work>
    </rdf:RDF>
  </metadata>
  <g
     inkscape:label="Layer 1"
     inkscape:groupmode="layer"
     id="layer1"
     transform="translate(-153.39081,-64.10593)">
    <path
       inkscape:connector-curvature="0"
       id="path3639"
       d="m 176.04162,72.833051 c -1.03353,0 -2.15112,-0.332109 -3.35552,-0.988053 -1.2044,-0.664217 -2.46531,-1.423515 -3.77445,-2.29719 -1.3174,-0.873676 -2.64445,-1.747355 -4.00044,-2.601736 -1.34635,-0.864031 -2.68442,-1.500685 -3.99218,-1.898936 0.52228,-0.314195 1.09968,-0.475425 1.71566,-0.475425 0.69315,0 1.43178,0.16123 2.22966,0.48369 0.78549,0.32384 1.59164,0.731739 2.42673,1.225078 0.84336,0.485069 1.70601,1.034905 2.5976,1.652266 0.89986,0.609096 1.8011,1.205784 2.7106,1.795586 0.90124,0.578774 1.82177,1.110696 2.74092,1.595766 0.91915,0.474045 1.82039,0.84474 2.70233,1.110699 -0.3321,0.14194 -0.68212,0.24667 -1.03352,0.30317 -0.36105,0.05788 -0.68213,0.09508 -0.96739,0.09508 z m 4.07762,-0.112999 c 0.50298,0 1.06109,-0.06752 1.66742,-0.199817 0.60772,-0.133671 1.1672,-0.332108 1.6881,-0.607716 0.51263,-0.275607 0.93845,-0.636651 1.28984,-1.073492 0.34176,-0.446482 0.51126,-0.988053 0.51126,-1.632973 0,-0.502983 -0.14194,-0.978408 -0.44511,-1.434539 -0.29352,-0.456131 -0.68213,-0.844737 -1.14791,-1.167197 -0.46439,-0.323839 -0.98529,-0.580154 -1.57372,-0.770325 -0.58704,-0.198438 -1.17546,-0.293522 -1.77215,-0.293522 -0.37896,0 -0.79651,0.06615 -1.25126,0.180523 -0.45613,0.122647 -0.90124,0.30317 -1.34634,0.540191 -0.44649,0.2384 -0.84474,0.523657 -1.21406,0.846116 -0.36931,0.322461 -0.66421,0.683508 -0.88194,1.091407 0.61598,-0.56913 1.34634,-1.034906 2.17179,-1.376659 0.81442,-0.351402 1.7253,-0.522277 2.70233,-0.522277 0.56775,0 1.11897,0.08544 1.64951,0.265959 0.5209,0.180524 0.9853,0.4079 1.3932,0.683507 0.4079,0.275608 0.73036,0.580154 0.98667,0.912262 0.24667,0.332109 0.37896,0.673862 0.37896,1.005967 0,0.835092 -0.34175,1.547538 -1.00458,2.13734 -0.67387,0.588423 -1.69775,0.873675 -3.0813,0.873675 -0.28525,0 -0.57877,-0.0193 -0.86265,-0.06753 -0.28526,-0.04685 -0.57051,-0.0937 -0.85439,-0.141937 0.38035,-0.502983 0.49334,-1.034905 0.35141,-1.576475 l -0.20809,0.104729 c 0.16123,0.551215 0.0275,1.015615 -0.39825,1.395956 -1.31878,-0.361047 -2.63619,-0.959115 -3.97288,-1.813501 -1.3367,-0.846116 -2.66513,-1.710146 -3.98253,-2.601736 -1.30914,-0.883323 -2.60725,-1.661914 -3.88745,-2.345421 -1.2802,-0.684883 -2.51216,-1.026637 -3.70692,-1.026637 -0.69178,0 -1.26091,0.07579 -1.71566,0.219107 -0.45613,0.141937 -0.82545,0.341754 -1.10932,0.607716 -0.34176,-0.09508 -0.66422,-0.16123 -0.98668,-0.199817 -0.32246,-0.02755 -0.64492,-0.04685 -0.95773,-0.04685 -0.49196,0 -1.05145,0.06615 -1.65916,0.188789 -0.61599,0.133671 -1.17547,0.341753 -1.68672,0.617361 -0.51263,0.275608 -0.93982,0.62701 -1.28984,1.073492 -0.34176,0.446486 -0.52228,0.988053 -0.52228,1.632977 0,0.504363 0.15158,0.978408 0.45613,1.434539 0.29352,0.456127 0.67248,0.844737 1.13688,1.167197 0.47405,0.323839 0.99632,0.580153 1.58337,0.770322 0.57877,0.190172 1.17546,0.283877 1.77353,0.283877 0.37896,0 0.79651,-0.0565 1.25126,-0.170875 0.45475,-0.122647 0.90124,-0.303171 1.34634,-0.540191 0.43546,-0.238404 0.84336,-0.523657 1.21405,-0.846117 0.36932,-0.32246 0.66284,-0.683507 0.88057,-1.091406 -0.62563,0.569129 -1.34496,1.034906 -2.17041,1.376659 -0.82544,0.351402 -1.7253,0.522277 -2.70233,0.522277 -0.57878,0 -1.12861,-0.08544 -1.64951,-0.265963 -0.5209,-0.18052 -0.98668,-0.407899 -1.3932,-0.683507 -0.4079,-0.275607 -0.74001,-0.578774 -0.98668,-0.912258 -0.25631,-0.341754 -0.37896,-0.673862 -0.37896,-1.005971 0,-0.836468 0.33073,-1.547534 1.00459,-2.135956 0.66422,-0.589802 1.69775,-0.884704 3.0813,-0.884704 0.74,0 1.47036,0.124027 2.18143,0.362427 -0.11437,0.264583 -0.18052,0.530542 -0.19017,0.80615 -0.0193,0.275607 0.01,0.560864 0.0854,0.84474 l 0.21773,-0.103353 c -0.0951,-0.314194 -0.12264,-0.598071 -0.0758,-0.846116 0.0469,-0.256315 0.13367,-0.474045 0.25631,-0.664214 1.28985,0.427189 2.57831,1.073492 3.86816,1.918229 1.28846,0.854382 2.56866,1.699119 3.83094,2.545235 1.26918,0.854386 2.51217,1.604039 3.74551,2.250338 1.23197,0.64492 2.42673,0.96876 3.60219,0.96876 1.30776,0 2.35094,-0.256315 3.11024,-0.759298 0.26458,0.07579 0.53881,0.122643 0.81441,0.141937 0.26597,0.02893 0.54984,0.03859 0.8351,0.03859"
       style="fill:#000000;fill-opacity:1;fill-rule:evenodd;stroke:none;stroke-width:0.35277775" />
  </g>
</svg>
