<?xml version="1.0" encoding="UTF-8" standalone="no"?>
<svg
   xmlns:dc="http://purl.org/dc/elements/1.1/"
   xmlns:cc="http://creativecommons.org/ns#"
   xmlns:rdf="http://www.w3.org/1999/02/22-rdf-syntax-ns#"
   xmlns:svg="http://www.w3.org/2000/svg"
   xmlns="http://www.w3.org/2000/svg"
   xmlns:sodipodi="http://sodipodi.sourceforge.net/DTD/sodipodi-0.dtd"
   xmlns:inkscape="http://www.inkscape.org/namespaces/inkscape"
   width="24"
   height="24"
   viewBox="0 0 24 24"
   version="1.1"
   id="svg859"
   sodipodi:docname="instagram-thin.svg"
   inkscape:version="0.92.4 (5da689c313, 2019-01-14)">
  <metadata
     id="metadata865">
    <rdf:RDF>
      <cc:Work
         rdf:about="">
        <dc:format>image/svg+xml</dc:format>
        <dc:type
           rdf:resource="http://purl.org/dc/dcmitype/StillImage" />
      </cc:Work>
    </rdf:RDF>
  </metadata>
  <defs
     id="defs863" />
  <sodipodi:namedview
     pagecolor="#ffffff"
     bordercolor="#666666"
     borderopacity="1"
     objecttolerance="10"
     gridtolerance="10"
     guidetolerance="10"
     inkscape:pageopacity="0"
     inkscape:pageshadow="2"
     inkscape:window-width="1920"
     inkscape:window-height="1009"
     id="namedview861"
     showgrid="false"
     inkscape:zoom="17.541667"
     inkscape:cx="12.997692"
     inkscape:cy="12.994315"
     inkscape:window-x="-8"
     inkscape:window-y="-8"
     inkscape:window-maximized="1"
     inkscape:current-layer="svg859" />
  <path
     sodipodi:type="inkscape:offset"
     inkscape:radius="-0.33701253"
     inkscape:original="M 12 0 C 8.741 0 8.3327344 0.014265625 7.0527344 0.072265625 C 2.6947344 0.27226563 0.27226563 2.6907344 0.072265625 7.0527344 C 0.013265625 8.3337344 -9.2518585e-18 8.741 0 12 C 0 15.259 0.014265625 15.667266 0.072265625 16.947266 C 0.27226563 21.305266 2.6907344 23.727734 7.0527344 23.927734 C 8.3337344 23.985734 8.741 24 12 24 C 15.259 24 15.667266 23.985734 16.947266 23.927734 C 21.301266 23.727734 23.730734 21.309266 23.927734 16.947266 C 23.986734 15.667266 24 15.259 24 12 C 24 8.741 23.985734 8.3327344 23.927734 7.0527344 C 23.731734 2.6987344 21.311219 0.27226563 16.949219 0.072265625 C 15.668219 0.013265625 15.259 -9.2518585e-18 12 0 z M 12 2.1621094 C 15.204 2.1621094 15.583609 2.1744219 16.849609 2.2324219 C 20.101609 2.3804219 21.621531 3.9243438 21.769531 7.1523438 C 21.827531 8.4173438 21.837891 8.7979531 21.837891 12.001953 C 21.837891 15.206953 21.826531 15.584609 21.769531 16.849609 C 21.620531 20.074609 20.104609 21.621531 16.849609 21.769531 C 15.583609 21.827531 15.206 21.839844 12 21.839844 C 8.796 21.839844 8.4153906 21.827531 7.1503906 21.769531 C 3.8903906 21.620531 2.3804219 20.070609 2.2324219 16.849609 C 2.1744219 15.584609 2.1621094 15.205 2.1621094 12 C 2.1621094 8.796 2.1754219 8.4163906 2.2324219 7.1503906 C 2.3814219 3.9233906 3.8953906 2.3804219 7.1503906 2.2324219 C 8.4163906 2.1754219 8.796 2.1621094 12 2.1621094 z M 18.40625 4.1542969 C 17.61025 4.1542969 16.964844 4.8007031 16.964844 5.5957031 C 16.964844 6.3907031 17.61025 7.0351563 18.40625 7.0351562 C 19.20125 7.0351562 19.845703 6.3907031 19.845703 5.5957031 C 19.845703 4.8007031 19.20125 4.1542969 18.40625 4.1542969 z M 12 5.8378906 C 8.597 5.8378906 5.8378906 8.597 5.8378906 12 C 5.8378906 15.403 8.597 18.162109 12 18.162109 C 15.403 18.162109 18.162109 15.404 18.162109 12 C 18.162109 8.597 15.403 5.8378906 12 5.8378906 z M 12 8 C 14.209 8 16 9.791 16 12 C 16 14.21 14.209 16 12 16 C 9.791 16 8 14.21 8 12 C 8 9.791 9.791 8 12 8 z "
     id="path857"
     d="m 12,0.33789062 c -3.2580165,0 -3.6523815,0.0123461 -4.9316406,0.0703125 C 4.9486478,0.50548223 3.3472387,1.1356533 2.2421875,2.2402344 1.1371363,3.3448154 0.50548215,4.9467038 0.40820312,7.0683594 0.34924735,8.3483992 0.33789063,8.7419145 0.33789062,12 c 0,3.258017 0.0123461,3.652382 0.0703125,4.931641 0.0972791,2.119711 0.72745018,3.721121 1.83203128,4.826171 1.104581,1.105051 2.7064694,1.736706 4.828125,1.833985 1.2802702,0.05797 1.6736241,0.07031 4.9316406,0.07031 3.258017,0 3.652381,-0.01235 4.931641,-0.07031 2.117668,-0.09727 3.720237,-0.72739 4.826171,-1.832031 1.105935,-1.104642 1.738175,-2.706698 1.833985,-4.828125 0.05896,-1.279029 0.07031,-1.673556 0.07031,-4.931641 0,-3.2580165 -0.01235,-3.6523814 -0.07031,-4.9316406 C 23.496473,4.950812 22.866341,3.3477393 21.761719,2.2421875 20.657096,1.1366357 19.055149,0.50547756 16.933594,0.40820312 15.65357,0.34924807 15.258085,0.33789062 12,0.33789062 Z m 0,1.48632818 c 3.204863,0 3.598336,0.014224 4.865234,0.072266 1.676786,0.076311 2.966681,0.5180845 3.847657,1.4023437 0.880976,0.8842592 1.316273,2.173618 1.392578,3.8378907 0.05806,1.2662554 0.07031,1.6605079 0.07031,4.8652342 0,3.205796 -0.01327,3.59728 -0.07031,4.863281 -0.07682,1.662655 -0.51215,2.951269 -1.392578,3.835938 -0.880429,0.884669 -2.169305,1.327985 -3.847657,1.404297 -1.266882,0.05804 -1.658371,0.07227 -4.865234,0.07227 -3.2048634,0 -3.5993247,-0.01422 -4.8652344,-0.07227 C 5.453894,22.028644 4.1645731,21.584369 3.2851562,20.699219 2.4057394,19.814069 1.9727827,18.525755 1.8964844,16.865234 1.838443,15.599333 1.8242187,15.205863 1.8242188,12 c 0,-3.2049335 0.015236,-3.5985658 0.072266,-4.8652344 C 1.973296,5.471202 2.4070753,4.18283 3.2871094,3.2988281 4.1671434,2.4148262 5.4565474,1.9727905 7.1347656,1.8964844 8.4014342,1.8394543 8.7950665,1.8242188 12,1.8242188 Z m 6.40625,2.6679687 c -0.613549,0 -1.103516,0.4909139 -1.103516,1.1035156 0,0.6126018 0.489416,1.1015626 1.103516,1.1015625 0.612871,0 1.101562,-0.4886914 1.101562,-1.1015625 0,-0.6128711 -0.489243,-1.1035156 -1.101562,-1.1035156 z M 12,6.1757812 c -3.2208363,0 -5.8242187,2.6033825 -5.8242188,5.8242188 0,3.220836 2.6033824,5.824219 5.8242188,5.824219 3.220902,0 5.824219,-2.602329 5.824219,-5.824219 0,-3.2208364 -2.603383,-5.8242188 -5.824219,-5.8242188 z m 0,1.4863282 c 2.391161,0 4.337891,1.9467299 4.337891,4.3378906 0,2.392078 -1.946832,4.337891 -4.337891,4.337891 C 9.608941,16.337891 7.6621094,14.392078 7.6621094,12 7.6621094,9.6088393 9.6088393,7.6621094 12,7.6621094 Z" />
</svg>
