<svg height="800" width="800" xmlns="http://www.w3.org/2000/svg" viewBox="0 0 511.999 511.999" xml:space="preserve"><path d="m492.466 297.584.005-62.375C503.754 231.819 512 221.342 512 208.97c0-55.708-45.322-101.03-101.03-101.03H101.036C45.328 107.94.006 153.262.006 208.97c0 12.371 8.246 22.849 19.529 26.239l-.005 62.377C8.246 300.975 0 311.453 0 323.825v22.638c0 31.758 25.843 57.596 57.608 57.596h396.79c31.758 0 57.596-25.838 57.596-57.596v-22.638c0-12.375-8.246-22.855-19.528-26.241zm-97.638-171.978 19.728 19.729c5.508 5.515 5.508 14.486.008 19.993-5.518 5.51-14.487 5.512-19.996.004l-39.724-39.725h39.984zm-132.578 0 19.728 19.729c5.506 5.515 5.506 14.486.008 19.993-5.515 5.508-14.486 5.506-19.996.004l-39.724-39.725h39.984zm-161.215.001h28.638l19.728 19.729c5.506 5.515 5.506 14.486.008 19.993-5.515 5.506-14.486 5.506-19.996.004l-39.022-39.022a83.65 83.65 0 0 1 10.644-.704zM17.672 208.97c0-35.195 21.935-65.344 52.844-77.551l46.409 46.409c6.198 6.191 14.339 9.286 22.481 9.286 8.145 0 16.292-3.098 22.495-9.294 12.383-12.398 12.383-32.571-.004-44.973l-7.239-7.239h42.622l52.221 52.221c6.199 6.191 14.339 9.286 22.481 9.286 8.145 0 16.292-3.098 22.496-9.294 12.383-12.398 12.383-32.571-.004-44.973l-7.239-7.239h42.622l52.217 52.217c6.197 6.197 14.337 9.294 22.481 9.294 8.145 0 16.293-3.099 22.5-9.298 12.381-12.398 12.381-32.571-.004-44.973l-6.697-6.697c41.562 4.681 73.976 40.028 73.976 82.82 0 5.364-4.364 9.728-9.728 9.728H27.4c-5.364-.002-9.728-4.366-9.728-9.73zm19.529 48.589v-21.195h437.602v21.195H37.201zm437.597 17.673v21.196h-242.75l21.194-21.196h221.556zm-246.54 0-54.633 54.64-54.64-54.64h109.273zm-113.062 21.196h-78v-21.196H94l21.196 21.196zm339.202 89.963H57.608c-22.023 0-39.94-17.913-39.94-39.929v-22.638c0-5.365 4.365-9.729 9.729-9.729h105.467l34.515 34.515a8.83 8.83 0 0 0 12.493 0l34.511-34.515H484.61c5.358 0 9.717 4.364 9.717 9.729v22.638c0 22.017-17.913 39.929-39.929 39.929z"/></svg>